<svg width="2505" height="1417" viewBox="0 0 2505 1417" fill="none" xmlns="http://www.w3.org/2000/svg">
<g style="mix-blend-mode:multiply">
<path d="M1247.45 1416.65C1193.83 1413.43 1133.9 1397.23 1085.39 1374.33C1040.42 1353.12 991.385 1315.27 938.732 1319.38C893.766 1322.88 856.487 1347.17 815.812 1362.17C732.422 1392.93 641.807 1395.64 556.658 1369.72C500.559 1352.64 456.216 1319.98 409.723 1285.67C367.088 1272.36 327.418 1293.91 286.461 1300.9C177.368 1319.54 68.6356 1262.95 22.3836 1162.8C-18.4825 1074.29 -2.63645 965.102 63.7422 893.492C83.286 872.405 108.768 858.375 129.558 838.796C135.738 832.977 146.238 824.424 146.409 815.68C146.811 795.769 138.712 773.98 135.848 754.16C115.31 612.305 180.483 477.044 301.996 403.695C375.81 359.13 448.157 348.426 533.859 353.251C583.025 356.014 623.539 385.704 672.605 362.507C706.126 346.667 709.462 320.264 724.293 289.67C767.962 199.627 817.038 125.654 903.021 70.7175C1024 -6.57177 1163.83 -19.9994 1299.19 27.9421C1403.75 64.9786 1493.53 142.097 1541.6 242.483C1548.12 256.091 1552.77 272.042 1559.34 284.997C1563.05 292.314 1568.42 293.339 1576.41 294.042C1608.4 296.867 1642.65 294.867 1674.88 297.027C1786.94 304.535 1884.65 376.045 1923.18 481.577C1930.47 501.558 1932.37 529.378 1959.1 532.021C1989.87 535.076 2009.06 523.609 2037.45 520.995C2145.9 510.985 2236.3 600.214 2224.75 709.254C2223.37 722.299 2216.22 740.853 2224.75 752.441C2230.7 760.522 2247.44 758.874 2256.4 759.969C2291.79 764.311 2334.23 774.1 2367.07 787.9C2444 820.233 2498.04 893.622 2504.07 977.263L2505 978.862V1012L2500.73 1040.36C2477.98 1148.73 2380.69 1225.62 2269.46 1219.87C2245.72 1218.64 2216.55 1212.27 2193.4 1218.12C2173.22 1223.22 2129.84 1270.85 2112.29 1286.64C2013.6 1375.41 1880.56 1406.69 1753.45 1361.18C1698.48 1341.5 1646.58 1295.16 1584.94 1312.72C1543.6 1324.5 1501.55 1356.03 1462.07 1374.66C1414.16 1397.25 1362.14 1410.99 1309.25 1414.68C1306.84 1414.85 1302.81 1415.49 1300.7 1416.67C1283.22 1415.89 1264.85 1417.71 1247.46 1416.67L1247.45 1416.65Z" fill="url(#paint0_radial_16_125)"/>
</g>
<defs>
<radialGradient id="paint0_radial_16_125" cx="0" cy="0" r="1" gradientUnits="userSpaceOnUse" gradientTransform="translate(2976.5 1667) rotate(-149.75) scale(3309.06 6191.55)">
<stop offset="0.360676" stop-color="#9333EA"/>
<stop offset="1" stop-color="#F472B6"/>
</radialGradient>
</defs>
</svg>
